<?xml version="1.0" encoding="UTF-8"?><svg id="a" xmlns="http://www.w3.org/2000/svg" viewBox="0 0 600 600"><rect x="0" y=".019" width="600" height="600" fill="#033"/><path d="m117.042,129.833c-7.721,8.658-6.04,22.144,3.58,28.628,101.046,68.101,104.99,63.756,153.684,75.088,56.629,13.179,55.542,2.321,38.488-124.897-.679-5.066-4.783-37.109-5.463-41.873-1.407-9.842-10.108-16.91-20.037-16.403-61.841,3.159-122.399,29.16-167.951,76.934-.555.582-1.352,1.458-2.301,2.522Z" fill="#eeefe5"/><path d="m495.725,403.717c10.884,10.405,28.835,6.742,34.666-7.14,40.955-97.493,16.603-214.242-68.09-286.623-29.748-25.423-63.745-42.632-99.232-51.857-14.764-3.838-28.644,8.718-26.518,23.824.83,5.896,1.705,12.042,2.617,18.438q23.32,163.675,113.899,259.45c17.051,18.029,30.889,32.658,42.657,43.908Z" fill="#3c9"/><path d="m281.493,267.983c-44.466-10.668-55.936-9.889-186.376,136.318-8.897,9.972-9.322,24.91-1.809,35.962,12.237,18.002,27.044,34.69,44.39,49.514,100.762,86.113,250.261,78.089,341.334-15.671.037-.038.075-.077.113-.117,8.756-9.055,10.92-22.73,5.166-33.936-9.248-18.009-30.052-34.569-54.108-58.301-95.069-93.788-97.142-101.399-148.71-113.771Z" fill="#f9f"/><path d="m75.229,190.715c-24.872,51.131-31.042,108.532-19.279,162.512,3.806,17.466,24.19,20.728,37.048,8.309,33.258-32.125,75.53-69.709,81.373-93.803,3.95-16.291.551-24.911-3.809-34.184-6.357-13.521-40.807-37.562-63.665-49.964-11.675-6.335-25.857-4.815-31.668,7.13Z" fill="#cf0"/></svg>