<?xml version="1.0" encoding="UTF-8"?><svg id="a" xmlns="http://www.w3.org/2000/svg" viewBox="0 0 502.731 185.855"><path d="m24.883,29.584c-2.874,3.223-2.248,8.242,1.333,10.655,37.61,25.347,39.078,23.73,57.202,27.948,21.078,4.905,20.673.864,14.325-46.487-.253-1.886-1.78-13.812-2.034-15.585-.524-3.663-3.762-6.294-7.458-6.105-23.018,1.176-45.558,10.854-62.512,28.635-.207.217-.503.543-.856.939Z" fill="#033"/><path d="m165.83,131.525c4.051,3.873,10.732,2.509,12.903-2.658,15.244-36.288,6.18-79.742-25.344-106.683-11.072-9.463-23.726-15.868-36.935-19.302-5.495-1.429-10.661,3.245-9.87,8.867.309,2.194.635,4.482.974,6.863q8.68,60.921,42.394,96.569c6.346,6.71,11.497,12.155,15.877,16.343Z" fill="#3c9"/><path d="m86.092,81.003c-16.551-3.971-20.82-3.681-69.37,50.738-3.311,3.712-3.47,9.272-.673,13.385,4.555,6.7,10.066,12.912,16.522,18.43,37.504,32.052,93.148,29.065,127.047-5.833.014-.014.028-.029.042-.043,3.259-3.37,4.064-8.46,1.923-12.631-3.442-6.703-11.185-12.867-20.139-21.7-35.385-34.908-36.157-37.741-55.351-42.346Z" fill="#f9f"/><path d="m9.32,52.244C.062,71.275-2.234,92.64,2.144,112.732c1.417,6.501,9.004,7.715,13.789,3.093,12.379-11.957,28.113-25.946,30.287-34.914,1.47-6.064.205-9.272-1.418-12.723-2.366-5.033-15.188-13.981-23.696-18.597-4.346-2.358-9.624-1.792-11.787,2.654Z" fill="#cf3"/><path d="m318.156,47.905c-1.463-3.225-4.721-5.26-8.262-5.26h-8.159c-1.965,0-3.878.635-5.453,1.81l-12.591,9.393c-2.307,1.721-3.666,4.431-3.666,7.309v15.726c0,3.836,2.401,7.262,6.006,8.571,1.018.37,3.526.635,5.366.548,0-.573-.06-1.773-.06-3.267v-28.78h24.597l2.752-.044c0-2.88.308-4.16-.53-6.007Z" fill="#033"/><path d="m268.045,26.077h-3.413c-2.213,0-4.008,1.794-4.008,4.008v43.736h-25.599V30.085c0-2.213-1.794-4.008-4.008-4.008h-3.413c-2.351,0-4.257,1.906-4.257,4.257v31.003c0,14.486,9.583,24.473,24.067,24.694,14.742.225,24.887-9.602,24.887-24.294v-31.404c0-2.351-1.906-4.257-4.257-4.257Z" fill="#033"/><path d="m452.44,42.482h-1.787c-10.89,0-19.717,8.828-19.717,19.717v20.328c0,2.013,1.632,3.645,3.645,3.645h2.576c1.985,0,3.594-1.609,3.594-3.594v-27.965h21.395v27.965c0,1.985,1.609,3.594,3.594,3.594h2.774c1.762,0,3.643-1.673,3.643-3.435v-20.538c0-10.89-8.828-19.717-19.717-19.717Z" fill="#033"/><path d="m416.294,48.412c-4.088-3.873-9.406-6.006-14.977-6.006h-2.4c-11.383,0-20.611,9.228-20.611,20.611v2.294c0,11.383,9.228,20.611,20.611,20.611h0c1.631,0,2.953-1.322,2.953-2.953v-8.962s-14.33,0-14.33,0v-19.33h24.698v27.846c0,1.971,1.598,3.569,3.569,3.569h3.512c1.971,0,3.569-1.598,3.569-3.569v-19.026c0-5.699-2.342-11.056-6.594-15.085Z" fill="#033"/><path d="m333.104,80.085c4.088,3.873,9.406,6.006,14.977,6.006h2.4c11.383,0,20.611-9.228,20.611-20.611v-2.294c0-11.383-9.228-20.611-20.611-20.611h0c-1.631,0-2.953,1.322-2.953,2.953v8.962s14.33,0,14.33,0v19.33h-24.698V29.246c0-1.971-1.598-3.569-3.569-3.569h-3.512c-1.971,0-3.569,1.598-3.569,3.569v35.755c0,5.699,2.342,11.056,6.594,15.085Z" fill="#033"/><path d="m375.956,117.276h-2.715c-11.141,0-20.173,9.405-20.173,20.546v1.603c0,13.777,12.309,21.486,21.112,21.486h2.001c3.243,0,14.302-2.764,15.579-10.805.592-2.338-2.492-5.136-4.761-3.55-3.934,2.225-7.888,4.339-12.402,1.998-1.282-.971-1.51-1.67-1.452-2.89.358-6.571-3.532-7.843-5.945-8-1.513-.02-3.109.918-4.174,1.724-1.629,1.235-3.614.375-3.824-1.847-.772-8.136,6.724-13.611,10.467-13.596,0,0,9.059-1.381,5.346,9.076-.283.798-.473,1.625-.473,2.471v.116c0,2.612,2.118,4.73,4.73,4.73h13.964c1.596,0,2.89-1.294,2.89-2.89h0c0-11.141-9.032-20.173-20.173-20.173Z" fill="#033"/><path d="m301.443,117.175h-2.715c-11.095,0-20.173,9.91-20.173,21.005v1.169c0,13.777,12.309,21.46,21.112,21.46h0c5.378.405,17.751-3.662,18.769-11.045.09-.43.072-.936.063-1.186-.35-2.417-3.474-3.341-6.042-1.516-2.46,1.499-4.907,2.359-8.057,1.944-3.266-.379-5.218-2.297-5.692-4.181-.76-2.966-3.494-5.852-6.578-6.369-6.409-1.074-6.012-4.183-4.95-6.926,0,0,2.179-5.393,8.423-7.726,3.183-1.21,9.579-1.069,10.307,2.278.484,2.228-1.532,3.425-3.806,4.55-.764.378-1.478.865-2.048,1.498-.732.812-1.252,1.827-1.29,3.274,0,2.612,2.541,4.853,5.481,4.834h14.478c1.596,0,2.89-1.294,2.89-2.89h0c0-11.141-9.032-20.173-20.173-20.173Z" fill="#033"/><path d="m447.497,124.365c.834-4.238-3.048-6.99-6.161-7.027-1.485-.017-3.233.191-4.496.924-1.421.825-3.124,1.07-4.651.463-3.495-1.388-8.848-1.387-8.848-1.387-11.141,0-20.325,10.07-20.325,21.211v1.669c0,8.994,4.272,17.383,11.839,19.986,4.253,1.463,9.27-1.169,9.27-5.668l.048-.672c0-4.611-3.362-7.14-5.379-7.813-9.469-2.894-8.08-11.134-7.397-13.782,1.138-4.097,4.835-7.352,8.485-8.12,6.852-1.537,14.857,2.562,13.769,11.783-.338,2.864-2.848,6.602-3.676,8.443-.514,1.142-1.388,2.688-1.687,4.186-.717,3.587-.6,6.824.918,9.261,1.856,3.126,6.63,3.202,8.236,3.189l5.605-.071c2.081-.018,3.758-1.709,3.758-3.79,0,0,.215-30.352.694-32.787Z" fill="#033"/><path d="m343.44,149.226h-7.729c-.971,0-1.758-.787-1.758-1.758h0c0-.971.787-1.758,1.758-1.758h1.908c2.451,0,4.439-1.987,4.439-4.439v-34.807c0-3.074-2.492-5.565-5.565-5.565h-3.416c-3.074,0-5.565,2.492-5.565,5.565v47.958c0,3.606,2.923,6.529,6.529,6.529h9.511c3.297,0,5.97-2.673,5.97-5.97v-.259c0-.132-.004-.262-.013-.392-.198-2.908-3.154-5.104-6.068-5.104Z" fill="#033"/><path d="m273.808,146.767c-2.017-9.482-13.657-11.746-16.324-11.654-3.975.137-4.263-4.564-.768-4.881,5.806-.526,15.59-4.794,15.607-14.06.025-13.354-10.956-19.968-22.014-18.903-1.887.149-4.851.06-11.562,2.54-4.445,1.643-9.264-2.034-13.332,1.538-2.798,2.457-2.035,10.552-2.035,15.442l.036,32.433c0,3.87,1.456,11.523,8.226,11.523h4.584c5.571,0,9.071-3.858,9.383-7.928.279-3.627-.511-6.257-2.235-9.515-.893-1.687-3.935-3.866-5.521-5.122-1.159-.918-2.261-1.7-3.452-3.089-3.129-3.651-4.778-7.72-5.006-10.574-.227-2.853.172-8.808,3.582-12.954,5.237-6.462,11.715-5.994,15.06-5.9,3.345.094,12.278,2.779,12.204,12.601-.033,4.432-2.712,7.012-6.648,9.195-6.32,3.505-5.689,11.634-5.689,11.634-.066,12.114,10.65,21.652,20.308,21.652h5.262c2.144.026,3.008-1.463,2.576-3.625l-2.244-10.354Z" fill="#033"/><path d="m481.152,100.415l-1.185.018c-9.881,0-19.317,7.197-19.317,18.277v.167c-.098,2.439.949,7.695,2.502,10.41.044.078.34.509.811,1.017.411.443.104,1.165-.501,1.172-1.833.02-3.323-.014-4.115-.014h-.793c-2.545,0-4.608,2.063-4.608,4.608v1.203c0,2.194,1.778,3.972,3.972,3.972h3.569c2.191-.187,3.473-.518,4.526-2.399.57-1.506,3.885-1.092,3.331,2.162-.495,2.587-1.062,4.041-5.041,8.062-2.653,2.28-4.241,5.354-4.241,6.919l-.022,1.088c0,2.942,3.035,4.358,4.838,4.358h17.056c2.922,0,3.823-1.074,3.253-3.393-1.919-4.364-6.741-14.181-6.741-14.181-.632-1.173-.541-2.615,1.308-2.601.07,0,5.832-.014,5.832-.014,2.271,0,4.13-1.858,4.13-4.13v-1.64c0-2.716-1.996-4.116-4.435-4.116h-7.345c-1.256,0-2.5-.303-3.597-.915-2.916-1.626-4.794-3.553-6.091-7.757-.758-3.036-.757-5.987.532-9.459,1.687-3.87,5.318-6.335,8.988-6.417,6.906-.155,8.357,4.488,8.269,8.953-.036,2.664-1.114,3.741-1.515,6.56-.297,2.085,1.542,3.172,4.169,3.076l11.632.016c1.33,0,2.408-1.078,2.408-2.408h0c0-13.489-8.397-22.594-21.579-22.594Z" fill="#033"/></svg>